<svg xmlns="http://www.w3.org/2000/svg" viewBox="0 0 200 200" width="200" height="200">
  <defs>
    <linearGradient id="logoBg" x1="0" y1="0" x2="1" y2="1">
      <stop offset="0%" stop-color="#F3EDE5"/>
      <stop offset="100%" stop-color="#E8E0D4"/>
    </linearGradient>
    <radialGradient id="logoGlow" cx="50%" cy="45%" r="40%">
      <stop offset="0%" stop-color="#6B9E9E" stop-opacity="0.12"/>
      <stop offset="100%" stop-color="#6B9E9E" stop-opacity="0"/>
    </radialGradient>
    <filter id="nGlow" x="-50%" y="-50%" width="200%" height="200%">
      <feGaussianBlur in="SourceGraphic" stdDeviation="2.5" result="blur"/>
      <feMerge>
        <feMergeNode in="blur"/>
        <feMergeNode in="SourceGraphic"/>
      </feMerge>
    </filter>
    <pattern id="logoGrid" width="20" height="20" patternUnits="userSpaceOnUse">
      <path d="M 20 0 L 0 0 0 20" fill="none" stroke="#37342F" stroke-width="0.3" opacity="0.04"/>
    </pattern>
  </defs>
  <rect width="200" height="200" rx="24" fill="url(#logoBg)"/>
  <rect width="200" height="200" rx="24" fill="url(#logoGrid)"/>
  <rect width="200" height="200" rx="24" fill="url(#logoGlow)"/>
  <g opacity="0.35">
    <line x1="70" y1="80" x2="40" y2="45" stroke="#6B9E9E" stroke-width="0.7" opacity="0.5"/>
    <line x1="40" y1="45" x2="55" y2="30" stroke="#6B9E9E" stroke-width="0.5" opacity="0.3"/>
    <line x1="130" y1="80" x2="160" y2="45" stroke="#6B9E9E" stroke-width="0.7" opacity="0.5"/>
    <line x1="160" y1="45" x2="170" y2="35" stroke="#6B9E9E" stroke-width="0.5" opacity="0.25"/>
    <line x1="75" y1="145" x2="38" y2="165" stroke="#C07050" stroke-width="0.6" opacity="0.35"/>
    <line x1="38" y1="165" x2="30" y2="155" stroke="#C07050" stroke-width="0.5" opacity="0.25"/>
    <line x1="125" y1="145" x2="162" y2="165" stroke="#C07050" stroke-width="0.6" opacity="0.35"/>
    <line x1="162" y1="165" x2="175" y2="170" stroke="#C07050" stroke-width="0.5" opacity="0.25"/>
    <line x1="40" y1="45" x2="38" y2="165" stroke="#6B9E9E" stroke-width="0.4" opacity="0.1"/>
    <line x1="160" y1="45" x2="162" y2="165" stroke="#6B9E9E" stroke-width="0.4" opacity="0.1"/>
  </g>
  <g filter="url(#nGlow)">
    <circle cx="40" cy="45" r="2.5" fill="#6B9E9E" opacity="0.7"/>
    <circle cx="55" cy="30" r="1.5" fill="#6B9E9E" opacity="0.45"/>
    <circle cx="160" cy="45" r="2.5" fill="#6B9E9E" opacity="0.7"/>
    <circle cx="170" cy="35" r="1.5" fill="#6B9E9E" opacity="0.4"/>
    <circle cx="38" cy="165" r="2" fill="#C07050" opacity="0.6"/>
    <circle cx="30" cy="155" r="1.2" fill="#C07050" opacity="0.4"/>
    <circle cx="162" cy="165" r="2" fill="#C07050" opacity="0.6"/>
    <circle cx="175" cy="170" r="1.2" fill="#C07050" opacity="0.4"/>
  </g>
  <text x="100" y="133" text-anchor="middle" font-family="'Fraunces', Georgia, 'Times New Roman', serif" font-size="84" font-weight="800" fill="#37342F">a</text>
  <line x1="72" y1="116" x2="128" y2="116" stroke="#6B9E9E" stroke-width="1.5" opacity="0.3"/>
  <rect x="0.5" y="0.5" width="199" height="199" rx="24" fill="none" stroke="#D1C6AB" stroke-width="1" opacity="0.35"/>
</svg>